<?xml version="1.0" encoding="UTF-8"?>
<svg id="Layer_1" data-name="Layer 1" xmlns="http://www.w3.org/2000/svg" viewBox="0 0 52.43 51.05">
  <defs>
    <style>
      .cls-1 {
        fill: #2c2c2c;
      }
    </style>
  </defs>
  <path class="cls-1" d="M32.82,2.24c0-1.01-.74-1.89-1.74-2.01C2.42-3.17-12.79,31.89,13.77,47.68c18.99,11.29,44.94-7.65,37.29-29.06-1.4-3.91-2.19-5.96-5.39-3.57-.59.44-.87,1.17-.8,1.91,1.22,11.62-8.78,28.41-20.65,29.66C-4.94,49.69,9,3.9,30.77,4.26c1.13.02,2.06-.88,2.05-2.01h0Z"/>
  <path class="cls-1" d="M37.67.69c-5.68,1.87-3.92,12.13,3.91,12.95,11.34,1.19,9.65-17.41-3.91-12.95Z"/>
</svg>