<?xml version="1.0" encoding="UTF-8"?>
<svg id="Layer_1" data-name="Layer 1" xmlns="http://www.w3.org/2000/svg" viewBox="0 0 312.71 51.05">
  <defs>
    <style>
      .cls-1 {
        fill: #2c2c2c;
      }
    </style>
  </defs>
  <path class="cls-1" d="M15.07,41.5c-1.18-1.17-5.17,5.29-7.2,5.72-2.33.49-1.97-2.61-1.63-4.11.88-3.94,15.96-31.18,18.87-34.34,8.5-9.21,13.16-.71,20.95-3.27C50.95,3.89,49.49,0,43.91,0c-8.76,0-18.67,5.09-24.66,11.26C15.12,15.53.65,39.99.07,45.32c-1.21,11.03,13.66,3.08,15-3.81Z"/>
  <path class="cls-1" d="M31.95,14.55c.12,1.4,1.4,2.48,2.77,2.16,2.55-.59,4.4-3.9,1.24-5.49-2.56-1.29-4.21,1.05-4.02,3.33Z"/>
  <path class="cls-1" d="M54.77,19.96h14.63c-2.73,7.1-8,13.37-10.76,20.41-1.54,3.93-3.5,9.98,2.81,10.33,3.56.2,9.54-4.88,10.41-8,.43-1.53-.45-1.3-1.62-1.19-.76,3.89-7.97,8.64-6.65,1.29,1.15-6.42,8.19-14.66,10.42-21.15,1.92-2.83,5.79-1.39,8.75-1.69,2.87-2.44-6.36-1.4-6.68-1.66l3.34-7.45c-8.17,4.25-14.26,9.24-24.23,7.45-.48-.39,4.79-5.85,2.93-7.44l-14.63,8.7c.86,1.26,5.78-.85,5,1.64-3.09,6.05-14.51,21.24-11.27,27.78,3.04,6.13,13.29-2.79,14.62-7.05-2.27-1.27-3.13,2.63-4.68,3.64-1.34.88-2.94,1.03-4.5.92.01-1.21-.15-2.47.05-3.68.38-2.32,10.83-22.45,12.07-22.84Z"/>
  <path class="cls-1" d="M120.39,11.68c-17.13-3.27-31.24,8.05-38.89,22.34-1.88,3.52-8.54,15.38-1.63,16.58,5.71.99,9.13-4.62,11.26-9.09l-7.11,5.77c-1.94-1.39-1.32-3.07-.84-4.97,1.53-6.13,11.39-21.96,16.73-25.67,6.63-4.61,18.46,5.9,20.48-4.96Z"/>
  <path class="cls-1" d="M169.7,43.57c-.97-7.17.72-16.22,0-23.61h9.19c-.84-3.15-8.49-.94-9.2-1.65v-6.63s-7.12,5.82-7.12,5.82l-2.07.82.41,1.65h3.76c.97.96-1.23,22.73.63,27.12,2.3,5.43,9.08,4.32,12.77.66,1.1-1.09,5.78-6.65,1.65-6.24-.52,5.26-9.14,8.7-10.04,2.07Z"/>
  <path class="cls-1" d="M32.62,41.5l-7.11,5.78c-2.74-2.05-.37-5.09.83-7.45,1.92-3.79,11.02-15.46,9.24-19.01-2.87-5.7-11.15,1.56-13.82,4.53,2.21.84,3.27-2.32,5.59-2.76,1.5-.28,1.84-.06,2.74,1.09.12,1.53-9.05,14.76-10.47,17.78-6.55,13.94,10.79,10.18,12.99.05Z"/>
  <path class="cls-1" d="M110.96,35.88c3.96-2.8,16.01-10.05,11.99-15.57-4.31-5.92-16.94,3.27-20.56,7.09-18.33,19.34.22,33.93,15.48,14.11-3.49-.51-4.56,3.68-7.48,4.59-4.01,1.26-10.36.96-9.14-4.51,3.43-1.26,6.73-3.6,9.7-5.71ZM100.33,40.66c1.33-6.4,4.93-17.31,12.31-18.87,3.99-.84,5.97-.03,5.22,4.33-.62,3.61-6.08,7.35-8.91,9.42-1.02.75-8.06,5.65-8.62,5.11Z"/>
  <path class="cls-1" d="M156.32,27.41c1.44-12.52-21.22-10.64-21.7.5-.43,9.92,18.68,7.81,19.19,15.72.42,6.39-9.13,6.41-13.3,4.02-2.79-1.6-3.65-5.47-6.75-6.14.59,13.14,22.94,12.17,23.78.11.76-11.01-18.85-8.5-18.85-16.27,0-5.44,8.28-5.72,11.75-3.28l5.88,5.34Z"/>
  <path class="cls-1" d="M201.47,20.24c0-.63-.47-1.19-1.1-1.26-18.03-2.14-27.6,19.92-10.89,29.85,11.95,7.1,28.27-4.81,23.46-18.28-.88-2.46-1.38-3.75-3.39-2.25-.37.28-.55.74-.5,1.2.77,7.31-5.53,17.87-12.99,18.66-18.34,1.94-9.57-26.87,4.13-26.65.71.01,1.29-.56,1.29-1.27h0Z"/>
  <path class="cls-1" d="M204.52,19.26c-3.57,1.17-2.46,7.63,2.46,8.15,7.13.75,6.07-10.95-2.46-8.15Z"/>
  <path class="cls-1" d="M225.71,24.92c.6-9.39-2.71-4.12-8.37-3.3-.37,1.92,1.9,2.37,2.35,3.88.69,2.33.42,21.19-.64,22.92-.52.83-2.42,0-1.7,2.19h10.86c-.15-1.09-1.66-1.57-2.08-2.49-.78-1.7-.76-15.98-.45-18.65.25-2.08,1.84-5.55,3.95-6.08s6.65,2.94,9.67.87c.91-.63,1.29-1.8,1.05-2.89h0c-.27-1.23-1.29-2.14-2.54-2.3-3.57-.45-6.61.61-9.57,2.99-1.35,1.09-1.22,2.66-2.53,2.86Z"/>
  <path class="cls-1" d="M250.77,19.13l-7.54,2.92c-.02,1.11,1.26,1.77,1.49,2.66.74,2.81.63,17.96.24,21.39-.25,2.18-1.63,2.61-1.72,4.51h10.02c.29-2.03-2.5-2.19-2.5-4.55v-26.93Z"/>
  <path class="cls-1" d="M285.88,41.5c-2.34.09-3.2,2.4-5.26,3.48-10.15,5.29-20.53-3.51-18.97-14.25h22.99c2.42,0-.07-5.39-.87-6.59-5.86-8.72-19.89-5.61-24.65,2.84-9.99,17.74,12.23,32.85,25.1,17.43.78-.93,2.03-1.33,1.67-2.9ZM280.03,29.07h-17.55c.97-11.25,15.72-10.91,17.55,0Z"/>
  <path class="cls-1" d="M309.91,20.98c-4.12-4.5-20.63-2.56-19.9,7.67.57,8.06,12.22,7.49,17.09,11.28,3.06,2.38,1.6,7.93-2.6,8.85-6.79,1.49-10.02-2.43-13.22-7.29-.64-.98.21-2.14-2.06-1.65-2.83,14.28,22.53,14.59,23.45,2.06.73-9.96-11.63-8.67-17.1-12.92-1.79-1.39-2.14-5.35-.53-6.98,2.11-2.12,8.27-1.38,10.82.09s3,4.92,5.91,5.31c-.47-1.59-.91-5.37-1.87-6.43Z"/>
</svg>